{"title":"Paranormal.Activity.2.2010.UNRATED.DvDRip.x264.Feel-Free ","uid":6131892,"size":1100432308,"categoryP":"video","categoryS":"movies","magnet":"?xt=urn:btih:ea3ec9546fff2d025ab9b247bbbd55ca9f786e70&amp;dn=Paranormal.Activity.2.2010.UNRATED.DvDRip.x264.Feel-Free+&amp;tr=udp%3A%2F%2Ftracker.openbittorrent.com%3A80&amp;tr=udp%3A%2F%2Fopen.demonii.com%3A1337&amp;tr=udp%3A%2F%2Ftracker.coppersurfer.tk%3A6969&amp;tr=udp%3A%2F%2Fexodus.desync.com%3A6969","seeders":1,"leechers":0,"uploader":"neon","files":-1,"time":1296157302,"description":"Genre: Horror | Mystery | Thriller \nLanguage:English\n &lt;a href=&quot; http://www.imdb.com/title/tt1536044/&quot; rel=&quot;nofollow&quot; target=&quot;_NEW&quot;&gt; http://www.imdb.com/title/tt1536044/&lt;/a&gt;\nSource:DVD\nSubtitles:Romana\n\n\nFormat : MPEG-4\nFormat profile : Base Media\nCodec ID : isom\nFile size : 1.02 GiB\nDuration : 1h 38mn\nOverall bit rate : 1 493 Kbps\nMovie name : Paranormal.Activity.2.2010.UNRATED.DvDRip.x264.Feel-Free\n\n\nVideo\nFormat settings, CABAC : Yes\nFormat settings, ReFrames : 4 frames\nCodec ID : avc1\nCodec ID/Info : Advanced Video Coding\nDuration : 1h 38mn\nBit rate mode : Variable\nBit rate : 1 200 Kbps\nWidth : 720 pixels\nHeight : 384 pixels\nDisplay aspect ratio : 1.875\nFrame rate mode : Constant\nFrame rate : 23.976 fps\nColor space : YUV\nChroma subsampling : 4:2:0\nBit depth : 8 bits\nScan type : Progressive\nBits/(Pixel*Frame) : 0.181\nStream size : 829 MiB (79%)\nWriting library : x264 \n\nAudio\nID : 2\nFormat : AAC\nFormat/Info : Advanced Audio Codec\nFormat version : Version 4\nFormat profile : LC\nCodec ID : 40\nDuration : 1h 38mn\nBit rate mode : Variable\nBit rate : 306 Kbps\nChannel(s) : 6 channels\nChannel positions : Front: L C R, Side: L R, LFE\nSampling rate : 48.0 KHz\nStream size : 214 MiB (20%)\n\n\n\nPlot:\nAfter experiencing what they think are a series of &quot;break-ins&quot;, a family sets up security cameras around their home, only to realize that the events unfolding before them are more sinister than they seem\n\n","torrent":{"xt":"urn:btih:ea3ec9546fff2d025ab9b247bbbd55ca9f786e70","amp;dn":"Paranormal.Activity.2.2010.UNRATED.DvDRip.x264.Feel-Free+","amp;tr":["udp%3A%2F%2Ftracker.openbittorrent.com%3A80","udp%3A%2F%2Fopen.demonii.com%3A1337","udp%3A%2F%2Ftracker.coppersurfer.tk%3A6969","udp%3A%2F%2Fexodus.desync.com%3A6969"],"infoHash":"ea3ec9546fff2d025ab9b247bbbd55ca9f786e70","infoHashBuffer":{"type":"Buffer","data":[234,62,201,84,111,255,45,2,90,185,178,71,187,189,85,202,159,120,110,112]},"announce":[],"urlList":[]}}